<svg width="22" height="22" viewBox="0 0 22 22" fill="none" xmlns="http://www.w3.org/2000/svg">
  <path
    d="M2.99998 0.333252C1.52722 0.333252 0.333313 1.52716 0.333313 2.99992V6.99992C0.333313 8.47272 1.52722 9.66658 2.99998 9.66658H6.99998C8.47278 9.66658 9.66665 8.47272 9.66665 6.99992V2.99992C9.66665 1.52716 8.47278 0.333252 6.99998 0.333252H2.99998ZM15 0.333252C13.5272 0.333252 12.3333 1.52716 12.3333 2.99992V6.99992C12.3333 8.47272 13.5272 9.66658 15 9.66658H19C20.4728 9.66658 21.6666 8.47272 21.6666 6.99992V2.99992C21.6666 1.52716 20.4728 0.333252 19 0.333252H15ZM0.333313 14.9999C0.333313 13.5271 1.52722 12.3333 2.99998 12.3333H6.99998C8.47278 12.3333 9.66665 13.5271 9.66665 14.9999V18.9999C9.66665 20.4727 8.47278 21.6666 6.99998 21.6666H2.99998C1.52722 21.6666 0.333313 20.4727 0.333313 18.9999V14.9999ZM15 12.3333C13.5272 12.3333 12.3333 13.5271 12.3333 14.9999V18.9999C12.3333 20.4727 13.5272 21.6666 15 21.6666H19C20.4728 21.6666 21.6666 20.4727 21.6666 18.9999V14.9999C21.6666 13.5271 20.4728 12.3333 19 12.3333H15Z"
    fill="white" />
</svg>
