<svg width="203" height="34" viewBox="0 0 203 34" fill="none" xmlns="http://www.w3.org/2000/svg">
  <path
    d="M32.28 4.92V33H25.44V16.16L19.16 33H13.64L7.32 16.12V33H0.48V4.92H8.56L16.44 24.36L24.24 4.92H32.28ZM35.8388 21.8C35.8388 19.5067 36.2654 17.4933 37.1188 15.76C37.9988 14.0267 39.1854 12.6933 40.6788 11.76C42.1721 10.8267 43.8388 10.36 45.6788 10.36C47.2521 10.36 48.6254 10.68 49.7988 11.32C50.9988 11.96 51.9188 12.8 52.5588 13.84V10.68H59.3988V33H52.5588V29.84C51.8921 30.88 50.9588 31.72 49.7588 32.36C48.5854 33 47.2121 33.32 45.6388 33.32C43.8254 33.32 42.1721 32.8533 40.6788 31.92C39.1854 30.96 37.9988 29.6133 37.1188 27.88C36.2654 26.12 35.8388 24.0933 35.8388 21.8ZM52.5588 21.84C52.5588 20.1333 52.0788 18.7867 51.1188 17.8C50.1854 16.8133 49.0388 16.32 47.6788 16.32C46.3188 16.32 45.1588 16.8133 44.1988 17.8C43.2654 18.76 42.7988 20.0933 42.7988 21.8C42.7988 23.5067 43.2654 24.8667 44.1988 25.88C45.1588 26.8667 46.3188 27.36 47.6788 27.36C49.0388 27.36 50.1854 26.8667 51.1188 25.88C52.0788 24.8933 52.5588 23.5467 52.5588 21.84ZM77.5472 33L73.2672 26.8L69.6672 33H62.2672L69.6272 21.6L62.0672 10.68H69.7472L74.0272 16.84L77.6272 10.68H85.0272L77.5472 21.92L85.2272 33H77.5472ZM198.094 33.32C196.894 33.32 195.907 32.9733 195.134 32.28C194.387 31.56 194.014 30.68 194.014 29.64C194.014 28.5733 194.387 27.68 195.134 26.96C195.907 26.24 196.894 25.88 198.094 25.88C199.267 25.88 200.227 26.24 200.974 26.96C201.747 27.68 202.134 28.5733 202.134 29.64C202.134 30.68 201.747 31.56 200.974 32.28C200.227 32.9733 199.267 33.32 198.094 33.32Z"
    fill="#4CBC9A" />
  <path
    d="M98.0228 33.28C95.9695 33.28 94.1295 32.9467 92.5028 32.28C90.8761 31.6133 89.5695 30.6267 88.5828 29.32C87.6228 28.0133 87.1161 26.44 87.0628 24.6H94.3428C94.4495 25.64 94.8095 26.44 95.4228 27C96.0361 27.5333 96.8361 27.8 97.8228 27.8C98.8361 27.8 99.6361 27.5733 100.223 27.12C100.809 26.64 101.103 25.9867 101.103 25.16C101.103 24.4667 100.863 23.8933 100.383 23.44C99.9295 22.9867 99.3561 22.6133 98.6628 22.32C97.9961 22.0267 97.0361 21.6933 95.7828 21.32C93.9695 20.76 92.4895 20.2 91.3428 19.64C90.1961 19.08 89.2095 18.2533 88.3828 17.16C87.5561 16.0667 87.1428 14.64 87.1428 12.88C87.1428 10.2667 88.0895 8.22667 89.9828 6.76C91.8761 5.26667 94.3428 4.52 97.3828 4.52C100.476 4.52 102.969 5.26667 104.863 6.76C106.756 8.22667 107.769 10.28 107.903 12.92H100.503C100.449 12.0133 100.116 11.3067 99.5028 10.8C98.8895 10.2667 98.1028 10 97.1428 10C96.3161 10 95.6495 10.2267 95.1428 10.68C94.6361 11.1067 94.3828 11.7333 94.3828 12.56C94.3828 13.4667 94.8095 14.1733 95.6628 14.68C96.5161 15.1867 97.8495 15.7333 99.6628 16.32C101.476 16.9333 102.943 17.52 104.063 18.08C105.209 18.64 106.196 19.4533 107.023 20.52C107.849 21.5867 108.263 22.96 108.263 24.64C108.263 26.24 107.849 27.6933 107.023 29C106.223 30.3067 105.049 31.3467 103.503 32.12C101.956 32.8933 100.129 33.28 98.0228 33.28ZM126.112 33L119.312 23.64V33H112.472V3.4H119.312V19.76L126.072 10.68H134.512L125.232 21.88L134.592 33H126.112ZM140.639 8.36C139.439 8.36 138.452 8.01333 137.679 7.32C136.932 6.6 136.559 5.72 136.559 4.68C136.559 3.61333 136.932 2.73333 137.679 2.04C138.452 1.32 139.439 0.959998 140.639 0.959998C141.812 0.959998 142.772 1.32 143.519 2.04C144.292 2.73333 144.679 3.61333 144.679 4.68C144.679 5.72 144.292 6.6 143.519 7.32C142.772 8.01333 141.812 8.36 140.639 8.36ZM144.039 10.68V33H137.199V10.68H144.039ZM155.836 3.4V33H148.996V3.4H155.836ZM167.633 3.4V33H160.793V3.4H167.633ZM181.669 33.32C179.723 33.32 177.989 32.9867 176.469 32.32C174.949 31.6533 173.749 30.7467 172.869 29.6C171.989 28.4267 171.496 27.12 171.389 25.68H178.149C178.229 26.4533 178.589 27.08 179.229 27.56C179.869 28.04 180.656 28.28 181.589 28.28C182.443 28.28 183.096 28.12 183.549 27.8C184.029 27.4533 184.269 27.0133 184.269 26.48C184.269 25.84 183.936 25.3733 183.269 25.08C182.603 24.76 181.523 24.4133 180.029 24.04C178.429 23.6667 177.096 23.28 176.029 22.88C174.963 22.4533 174.043 21.8 173.269 20.92C172.496 20.0133 172.109 18.8 172.109 17.28C172.109 16 172.456 14.84 173.149 13.8C173.869 12.7333 174.909 11.8933 176.269 11.28C177.656 10.6667 179.296 10.36 181.189 10.36C183.989 10.36 186.189 11.0533 187.789 12.44C189.416 13.8267 190.349 15.6667 190.589 17.96H184.269C184.163 17.1867 183.816 16.5733 183.229 16.12C182.669 15.6667 181.923 15.44 180.989 15.44C180.189 15.44 179.576 15.6 179.149 15.92C178.723 16.2133 178.509 16.6267 178.509 17.16C178.509 17.8 178.843 18.28 179.509 18.6C180.203 18.92 181.269 19.24 182.709 19.56C184.363 19.9867 185.709 20.4133 186.749 20.84C187.789 21.24 188.696 21.9067 189.469 22.84C190.269 23.7467 190.683 24.9733 190.709 26.52C190.709 27.8267 190.336 29 189.589 30.04C188.869 31.0533 187.816 31.8533 186.429 32.44C185.069 33.0267 183.483 33.32 181.669 33.32Z"
    fill="#374557" />
</svg>
