<svg width="24" height="24" viewBox="0 0 24 24" fill="none" xmlns="http://www.w3.org/2000/svg">
  <g clip-path="url(#clip0_1770_18)">
    <path
      d="M22.8 14.865C22.6275 14.595 22.35 14.4075 22.0275 14.355L14.9325 13.215C14.6025 13.1625 14.265 13.26 14.01 13.485C13.4475 13.98 12.9975 14.565 12.6675 15.21C11.865 14.7525 11.13 14.19 10.47 13.53C9.81001 12.87 9.24751 12.135 8.78998 11.3325C9.43501 11.0025 10.02 10.5525 10.515 9.99002C10.74 9.73499 10.8375 9.39748 10.785 9.06748L9.64499 1.9725C9.59249 1.65001 9.40499 1.37246 9.135 1.19998C8.625 0.877485 8.0625 0.66 7.51501 0.547485C7.09501 0.43497 6.63749 0.375 6.16498 0.375C2.97748 0.375 0.375 2.97748 0.375 6.16498C0.375 15.795 8.205 23.625 17.835 23.625C21.0225 23.625 23.625 21.0225 23.625 17.835C23.625 17.3625 23.565 16.905 23.4675 16.545C23.34 15.9375 23.1225 15.375 22.8 14.865Z"
      fill="#374557" />
  </g>
  <defs>
    <clipPath id="clip0_1770_18">
      <rect width="24" height="24" fill="white" />
    </clipPath>
  </defs>
</svg>
