<svg width="24" height="24" viewBox="0 0 24 24" fill="none" xmlns="http://www.w3.org/2000/svg">
  <g clip-path="url(#clip0_1770_22)">
    <path
      d="M16.5 8.625V17.625C16.4995 18.0227 16.3414 18.404 16.0602 18.6852C15.779 18.9664 15.3977 19.1245 15 19.125H4.5C3.50579 19.1239 2.55262 18.7284 1.84961 18.0254C1.14659 17.3224 0.751137 16.3692 0.75 15.375V6.375C0.750455 5.97731 0.908636 5.59605 1.18984 5.31484C1.47105 5.03364 1.85231 4.87545 2.25 4.875H12.75C13.7442 4.87614 14.6974 5.27159 15.4004 5.97461C16.1034 6.67762 16.4989 7.63079 16.5 8.625ZM22.8765 6.85135C22.7628 6.78543 22.6339 6.75051 22.5025 6.75006C22.3712 6.74961 22.242 6.78365 22.1279 6.84879L18.3779 8.99167C18.2631 9.05727 18.1677 9.15205 18.1013 9.26641C18.035 9.38078 18 9.51066 18 9.64288V14.3571C18 14.4893 18.035 14.6192 18.1013 14.7336C18.1677 14.8479 18.2631 14.9427 18.3779 15.0083L22.1279 17.1512C22.242 17.2164 22.3712 17.2504 22.5025 17.25C22.6339 17.2495 22.7628 17.2146 22.8765 17.1487C22.9901 17.0827 23.0844 16.9881 23.1499 16.8743C23.2155 16.7604 23.25 16.6314 23.25 16.5V7.5C23.25 7.36863 23.2155 7.23957 23.15 7.12573C23.0844 7.01189 22.9901 6.91727 22.8765 6.85135Z"
      fill="#374557" />
  </g>
  <defs>
    <clipPath id="clip0_1770_22">
      <rect width="24" height="24" fill="white" />
    </clipPath>
  </defs>
</svg>
